<mxfile host="Electron" modified="2023-05-23T07:56:15.466Z" agent="Mozilla/5.0 (X11; Linux x86_64) AppleWebKit/537.36 (KHTML, like Gecko) draw.io/21.2.8 Chrome/112.0.5615.165 Electron/24.2.0 Safari/537.36" etag="mhU_StBqrumC2XisphSI" version="21.2.8" type="device">
  <diagram name="Seite-1" id="XqnPr-6wocijXNKEGbOj">
    <mxGraphModel dx="1434" dy="846" grid="1" gridSize="10" guides="1" tooltips="1" connect="1" arrows="1" fold="1" page="1" pageScale="1" pageWidth="827" pageHeight="1169" math="0" shadow="0">
      <root>
        <mxCell id="0" />
        <mxCell id="1" parent="0" />
        <mxCell id="WFJFi5SINfdPON-z0qvB-14" value="" style="ellipse;whiteSpace=wrap;html=1;" vertex="1" parent="1">
          <mxGeometry x="40" y="230" width="730" height="440" as="geometry" />
        </mxCell>
        <mxCell id="WFJFi5SINfdPON-z0qvB-1" value="" style="shape=cylinder3;whiteSpace=wrap;html=1;boundedLbl=1;backgroundOutline=1;size=15;" vertex="1" parent="1">
          <mxGeometry x="390" y="520" width="60" height="80" as="geometry" />
        </mxCell>
        <mxCell id="WFJFi5SINfdPON-z0qvB-16" style="edgeStyle=orthogonalEdgeStyle;rounded=0;orthogonalLoop=1;jettySize=auto;html=1;exitX=0.5;exitY=1;exitDx=0;exitDy=0;entryX=0.5;entryY=0;entryDx=0;entryDy=0;entryPerimeter=0;fillColor=#a20025;strokeColor=#6F0000;" edge="1" parent="1" source="WFJFi5SINfdPON-z0qvB-2" target="WFJFi5SINfdPON-z0qvB-1">
          <mxGeometry relative="1" as="geometry" />
        </mxCell>
        <mxCell id="WFJFi5SINfdPON-z0qvB-2" value="api service" style="rounded=0;whiteSpace=wrap;html=1;" vertex="1" parent="1">
          <mxGeometry x="360" y="400" width="120" height="60" as="geometry" />
        </mxCell>
        <mxCell id="WFJFi5SINfdPON-z0qvB-12" style="edgeStyle=orthogonalEdgeStyle;rounded=0;orthogonalLoop=1;jettySize=auto;html=1;exitX=0.55;exitY=0.95;exitDx=0;exitDy=0;exitPerimeter=0;entryX=0.5;entryY=0;entryDx=0;entryDy=0;fillColor=#008a00;strokeColor=#005700;" edge="1" parent="1" source="WFJFi5SINfdPON-z0qvB-3" target="WFJFi5SINfdPON-z0qvB-2">
          <mxGeometry relative="1" as="geometry" />
        </mxCell>
        <mxCell id="WFJFi5SINfdPON-z0qvB-20" style="edgeStyle=orthogonalEdgeStyle;rounded=0;orthogonalLoop=1;jettySize=auto;html=1;exitX=0.625;exitY=0.2;exitDx=0;exitDy=0;exitPerimeter=0;fillColor=#008a00;strokeColor=#005700;" edge="1" parent="1" source="WFJFi5SINfdPON-z0qvB-3" target="WFJFi5SINfdPON-z0qvB-6">
          <mxGeometry relative="1" as="geometry" />
        </mxCell>
        <mxCell id="WFJFi5SINfdPON-z0qvB-3" value="" style="ellipse;shape=cloud;whiteSpace=wrap;html=1;" vertex="1" parent="1">
          <mxGeometry x="354" y="200" width="120" height="80" as="geometry" />
        </mxCell>
        <mxCell id="WFJFi5SINfdPON-z0qvB-6" value="Discord Guild&lt;br&gt;" style="shape=umlActor;verticalLabelPosition=bottom;verticalAlign=top;html=1;outlineConnect=0;" vertex="1" parent="1">
          <mxGeometry x="444" y="20" width="30" height="60" as="geometry" />
        </mxCell>
        <mxCell id="WFJFi5SINfdPON-z0qvB-18" style="edgeStyle=orthogonalEdgeStyle;rounded=0;orthogonalLoop=1;jettySize=auto;html=1;exitX=1;exitY=0.5;exitDx=0;exitDy=0;entryX=0;entryY=0.5;entryDx=0;entryDy=0;fillColor=#008a00;strokeColor=#005700;" edge="1" parent="1" source="WFJFi5SINfdPON-z0qvB-8" target="WFJFi5SINfdPON-z0qvB-2">
          <mxGeometry relative="1" as="geometry" />
        </mxCell>
        <mxCell id="WFJFi5SINfdPON-z0qvB-8" value="cli client&lt;br&gt;" style="rounded=0;whiteSpace=wrap;html=1;" vertex="1" parent="1">
          <mxGeometry x="120" y="400" width="120" height="60" as="geometry" />
        </mxCell>
        <mxCell id="WFJFi5SINfdPON-z0qvB-11" style="edgeStyle=orthogonalEdgeStyle;rounded=0;orthogonalLoop=1;jettySize=auto;html=1;exitX=0.5;exitY=1;exitDx=0;exitDy=0;entryX=0.4;entryY=0.1;entryDx=0;entryDy=0;entryPerimeter=0;fillColor=#008a00;strokeColor=#005700;" edge="1" parent="1" source="WFJFi5SINfdPON-z0qvB-9" target="WFJFi5SINfdPON-z0qvB-3">
          <mxGeometry relative="1" as="geometry" />
        </mxCell>
        <mxCell id="WFJFi5SINfdPON-z0qvB-9" value="cli client" style="rounded=0;whiteSpace=wrap;html=1;" vertex="1" parent="1">
          <mxGeometry x="120" y="80" width="120" height="60" as="geometry" />
        </mxCell>
        <mxCell id="WFJFi5SINfdPON-z0qvB-19" style="edgeStyle=orthogonalEdgeStyle;rounded=0;orthogonalLoop=1;jettySize=auto;html=1;exitX=0.5;exitY=0;exitDx=0;exitDy=0;entryX=0.8;entryY=0.8;entryDx=0;entryDy=0;entryPerimeter=0;fillColor=#008a00;strokeColor=#005700;" edge="1" parent="1" source="WFJFi5SINfdPON-z0qvB-17" target="WFJFi5SINfdPON-z0qvB-3">
          <mxGeometry relative="1" as="geometry" />
        </mxCell>
        <mxCell id="WFJFi5SINfdPON-z0qvB-21" style="edgeStyle=orthogonalEdgeStyle;rounded=0;orthogonalLoop=1;jettySize=auto;html=1;exitX=0.5;exitY=1;exitDx=0;exitDy=0;entryX=1;entryY=0.5;entryDx=0;entryDy=0;entryPerimeter=0;fillColor=#0050ef;strokeColor=#001DBC;" edge="1" parent="1" source="WFJFi5SINfdPON-z0qvB-17" target="WFJFi5SINfdPON-z0qvB-1">
          <mxGeometry relative="1" as="geometry" />
        </mxCell>
        <mxCell id="WFJFi5SINfdPON-z0qvB-17" value="bot" style="rounded=0;whiteSpace=wrap;html=1;" vertex="1" parent="1">
          <mxGeometry x="550" y="400" width="120" height="60" as="geometry" />
        </mxCell>
        <mxCell id="WFJFi5SINfdPON-z0qvB-24" value="Writes" style="text;html=1;strokeColor=none;fillColor=none;align=center;verticalAlign=middle;whiteSpace=wrap;rounded=0;" vertex="1" parent="1">
          <mxGeometry x="414" y="480" width="60" height="30" as="geometry" />
        </mxCell>
        <mxCell id="WFJFi5SINfdPON-z0qvB-25" value="Database" style="text;html=1;strokeColor=none;fillColor=none;align=center;verticalAlign=middle;whiteSpace=wrap;rounded=0;" vertex="1" parent="1">
          <mxGeometry x="390" y="600" width="60" height="30" as="geometry" />
        </mxCell>
        <mxCell id="WFJFi5SINfdPON-z0qvB-26" value="Reads" style="text;html=1;strokeColor=none;fillColor=none;align=center;verticalAlign=middle;whiteSpace=wrap;rounded=0;" vertex="1" parent="1">
          <mxGeometry x="510" y="530" width="60" height="30" as="geometry" />
        </mxCell>
        <mxCell id="WFJFi5SINfdPON-z0qvB-30" value="Sends" style="text;html=1;strokeColor=none;fillColor=none;align=center;verticalAlign=middle;whiteSpace=wrap;rounded=0;" vertex="1" parent="1">
          <mxGeometry x="270" y="400" width="60" height="30" as="geometry" />
        </mxCell>
        <mxCell id="WFJFi5SINfdPON-z0qvB-31" value="Sends" style="text;html=1;strokeColor=none;fillColor=none;align=center;verticalAlign=middle;whiteSpace=wrap;rounded=0;" vertex="1" parent="1">
          <mxGeometry x="270" y="140" width="60" height="30" as="geometry" />
        </mxCell>
        <mxCell id="WFJFi5SINfdPON-z0qvB-32" value="Sends" style="text;html=1;strokeColor=none;fillColor=none;align=center;verticalAlign=middle;whiteSpace=wrap;rounded=0;" vertex="1" parent="1">
          <mxGeometry x="429" y="150" width="60" height="30" as="geometry" />
        </mxCell>
        <mxCell id="WFJFi5SINfdPON-z0qvB-33" value="Sends" style="text;html=1;strokeColor=none;fillColor=none;align=center;verticalAlign=middle;whiteSpace=wrap;rounded=0;" vertex="1" parent="1">
          <mxGeometry x="360" y="310" width="60" height="30" as="geometry" />
        </mxCell>
        <mxCell id="WFJFi5SINfdPON-z0qvB-34" value="Sends" style="text;html=1;strokeColor=none;fillColor=none;align=center;verticalAlign=middle;whiteSpace=wrap;rounded=0;" vertex="1" parent="1">
          <mxGeometry x="500" y="310" width="60" height="30" as="geometry" />
        </mxCell>
      </root>
    </mxGraphModel>
  </diagram>
</mxfile>
